HIERARCHY
ROOT ui
{
	 OFFSET 0 0 0
	 CHANNELS 3 XPosition YPosition Z Position
	 EndSite
	 {
	 OFFSET 0 -1 0
	 }
}
ROOT li
{
	 OFFSET 0 0 0
	 CHANNELS 3 XPosition YPosition Z Position
	 EndSite
	 {
	 OFFSET 0 -1 0
	 }
}
ROOT ul
{
	 OFFSET 0 0 0
	 CHANNELS 3 XPosition YPosition Z Position
	 EndSite
	 {
	 OFFSET 0 -1 0
	 }
}
ROOT ll
{
	 OFFSET 0 0 0
	 CHANNELS 3 XPosition YPosition Z Position
	 EndSite
	 {
	 OFFSET 0 -1 0
	 }
}
ROOT tt
{
	 OFFSET 0 0 0
	 CHANNELS 3 XPosition YPosition Z Position
	 EndSite
	 {
	 OFFSET 0 -1 0
	 }
}
ROOT tb
{
	 OFFSET 0 0 0
	 CHANNELS 3 XPosition YPosition Z Position
	 EndSite
	 {
	 OFFSET 0 -1 0
	 }
}
ROOT td
{
	 OFFSET 0 0 0
	 CHANNELS 3 XPosition YPosition Z Position
	 EndSite
	 {
	 OFFSET 0 -1 0
	 }
}
ROOT v
{
	 OFFSET 0 0 0
	 CHANNELS 3 XPosition YPosition Z Position
	 EndSite
	 {
	 OFFSET 0 -1 0
	 }
}
ROOT bn
{
	 OFFSET 0 0 0
	 CHANNELS 3 XPosition YPosition Z Position
	 EndSite
	 {
	 OFFSET 0 -1 0
	 }
}
MOTION
Frames: 19
Frame Time: 0.002
-0.00654420280456543	0.0018626270294189453	0		0.49621795654296874	-2.428930419921875	0		-1.132024658203125	0.05449196243286133	0		-0.6925680541992187	-2.670609375	0		1.403379150390625	-0.7260001831054688	0		3.062509521484375	-0.01056784725189209	0		4.5373798828125	0.1478965301513672	0		5.56269580078125	0.2580010070800781	0		-0.42176324462890624	5.8678896484375	0		
0.020561567306518556	-0.00623548412322998	0		0.5442587280273438	-2.437504638671875	0		-1.1427882080078124	0.05632854461669922	0		-0.6965594482421875	-2.672057861328125	0		1.3313828125	-0.7155623168945312	0		3.05086865234375	0.0024444389343261717	0		4.53172607421875	0.153194091796875	0		5.562083984375	0.25422402954101564	0		-0.2867601928710938	5.8877470703125	0		
-0.011243258476257324	-6.27252995967865E-4	0		0.4883937072753906	-2.433841796875	0		-1.14362890625	0.057059097290039065	0		-0.7114791259765625	-2.664361083984375	0		1.3911234130859376	-0.7236242065429688	0		3.06083447265625	-0.012746761322021485	0		4.53176904296875	0.13849159240722655	0		5.5585126953125	0.23855503845214843	0		-0.28806353759765624	5.8921474609375	0		
0.00485190486907959	4.2164701223373414E-4	0		0.5394105834960937	-2.439447509765625	0		-1.138583984375	0.05271149826049805	0		-0.7134903564453124	-2.6638115234375	0		1.332876953125	-0.72622705078125	0		3.049089111328125	3.8779500126838684E-4	0		4.53498486328125	0.14283454895019532	0		5.5607314453125	0.2471106414794922	0		-0.28655657958984376	5.8925224609375	0		
-0.00817718505859375	-0.005158022880554199	0		0.5063757019042969	-2.4489912109375	0		-1.135465087890625	0.057372760772705075	0		-0.6896693115234375	-2.6775986328125	0		1.34060009765625	-0.7295977172851562	0		3.058954833984375	-0.014680133819580079	0		4.52308837890625	0.1414668426513672	0		5.56419970703125	0.22641195678710938	0		-0.41551248168945315	5.86957861328125	0		
0.0448792495727539	-0.0025966939926147462	0		0.5505963745117187	-2.44151416015625	0		-1.1323677978515625	0.06201312637329102	0		-0.6994619750976563	-2.66396435546875	0		1.345446044921875	-0.722898681640625	0		3.055303955078125	0.009501864433288574	0		4.52705712890625	0.13200486755371094	0		5.56638232421875	0.23538508605957031	0		-0.28105438232421875	5.8892412109375	0		
-0.020009368896484376	0.0055364928245544434	0		0.48290811157226565	-2.430528076171875	0		-1.1473746337890625	0.059873008728027345	0		-0.71732666015625	-2.66022705078125	0		1.3861905517578126	-0.7246544799804687	0		3.05207373046875	-0.009243358612060546	0		4.5273173828125	0.1457085418701172	0		5.5585380859375	0.2380074462890625	0		-0.2800134582519531	5.88961669921875	0		
0.014857563972473144	-0.004675990104675293	0		0.5408999633789062	-2.44823388671875	0		-1.1483477783203124	0.06051940155029297	0		-0.708291748046875	-2.668869384765625	0		1.321029541015625	-0.719924072265625	0		3.045176513671875	-0.002850712060928345	0		4.52637158203125	0.144548828125	0		5.55487548828125	0.22345390319824218	0		-0.279131103515625	5.889986328125	0		
-0.02010004997253418	-0.001916229009628296	0		0.5043731384277343	-2.435614013671875	0		-1.1433897705078124	0.05605014419555664	0		-0.7141132202148438	-2.67232470703125	0		1.3906824951171874	-0.7310352783203125	0		3.0460166015625	-0.015483220100402833	0		4.5303251953125	0.13644198608398436	0		5.554138671875	0.2211737823486328	0		-0.278404541015625	5.8903486328125	0		
0.006963597774505615	9.626299738883972E-4	0		0.4876975402832031	-2.43925048828125	0		-1.1402938232421875	0.060572757720947265	0		-0.780614501953125	-2.65891748046875	0		1.3404169921875	-0.737413330078125	0		3.0432099609375	-0.003980500936508179	0		4.529384765625	0.1355251922607422	0		5.560513671875	0.2137086181640625	0		-0.4111159362792969	5.87162841796875	0		
0.014977171897888183	-8.959149718284607E-4	0		0.5141446533203125	-2.440502685546875	0		-1.1412357177734376	0.06111863708496094	0		-0.711297607421875	-2.665500732421875	0		1.3845308837890624	-0.7211199340820312	0		3.048149169921875	-0.011514899253845214	0		4.52356396484375	0.14179840087890624	0		5.55855712890625	0.24138407897949218	0		-0.2773843078613281	5.8910419921875	0		
0.005079294204711914	0.0015048489570617675	0		0.5008062133789063	-2.4331630859375	0		-1.1421512451171876	0.06162965393066406	0		-0.7127894287109375	-2.66508056640625	0		1.383449951171875	-0.7211426391601562	0		3.0413232421875	-0.004800399780273437	0		4.52266552734375	0.14111236572265626	0		5.55494580078125	0.22783547973632812	0		-0.27706796264648437	5.89137060546875	0		
0.0041845121383667	0.0017666740417480468	0		0.52437939453125	-2.43837060546875	0		-1.1470948486328125	0.05816610717773438	0		-0.694153076171875	-2.6629873046875	0		1.3793603515625	-0.725091796875	0		3.04632080078125	-0.012194107055664063	0		4.52668994140625	0.13345777893066407	0		5.554287109375	0.22651942443847656	0		-0.2768654174804687	5.89168505859375	0		
0.005204683780670166	-0.006009716987609864	0		0.48006851196289063	-2.441545166015625	0		-1.1479429931640626	0.05860681533813476	0		-0.7215635986328125	-2.670222412109375	0		1.3783846435546876	-0.7250625	0		3.03649267578125	-0.010299116134643556	0		4.52096142578125	0.14005001831054686	0		5.55072900390625	0.21340830993652343	0		-0.2767636413574219	5.89198388671875	0		
0.008431686401367187	-0.0028290379047393797	0		0.5167620239257813	-2.4509541015625	0		-1.1446915283203125	0.06295047760009766	0		-0.7166674194335938	-2.663969970703125	0		1.335268798828125	-0.737365234375	0		3.049532958984375	-0.019699884414672852	0		4.5040576171875	0.1329013977050781	0		5.55722802734375	0.20703065490722655	0		-0.4100559997558594	5.873318359375	0		
-0.015280494689941406	0.0017586460113525391	0		0.48393826293945313	-2.4342900390625	0		-1.14139892578125	0.0672596206665039	0		-0.7167386474609375	-2.661666259765625	0		1.3315576171875	-0.7272510375976563	0		3.061140625	0.004970054149627686	0		4.52148095703125	0.144302001953125	0		5.55959033203125	0.2182711944580078	0		-0.4091308898925781	5.8725849609375	0		
0.009966253280639648	5.73652982711792E-4	0		0.5209286499023438	-2.435715087890625	0		-1.1461884765625	0.06366197204589844	0		-0.7208139038085938	-2.665323974609375	0		1.375788330078125	-0.7248745727539062	0		3.0372373046875	-0.0057692999839782716	0		4.51868359375	0.13908071899414062	0		5.5519560546875	0.22311601257324218	0		-0.2769231567382813	5.89278076171875	0		
-0.019768301010131835	-0.0017633359432220458	0		0.46607623291015626	-2.43170458984375	0		-1.150936279296875	0.06003412246704101	0		-0.723771728515625	-2.667021240234375	0		1.375033203125	-0.7247886962890625	0		3.033467529296875	-0.010782515525817871	0		4.5180048828125	0.13888876342773437	0		5.5514541015625	0.22263552856445312	0		-0.27709332275390625	5.8930126953125	0		
0.0015366040468215941	-0.004914480209350586	0		0.5161358032226563	-2.439349365234375	0		-1.15157666015625	0.06031330108642578	0		-0.7246124267578125	-2.6667734375	0		1.3104063720703125	-0.7196843872070312	0		3.0417890625	-0.012952655792236327	0		4.50737158203125	0.13890953063964845	0		5.552220703125	0.19281378173828126	0		-0.27730526733398436	5.8932275390625	0		
